<mxfile host="app.diagrams.net" modified="2022-04-19T03:22:18.624Z" agent="5.0 (Macintosh; Intel Mac OS X 10_15_7) AppleWebKit/537.36 (KHTML, like Gecko) Chrome/100.0.4896.127 Safari/537.36" etag="HNYy8W6skvSL0IKeqGzE" version="17.4.5" type="github">
  <diagram id="8GgMJwKJn8SSidBKVmMq" name="第 1 页">
    <mxGraphModel dx="651" dy="358" grid="1" gridSize="10" guides="1" tooltips="1" connect="1" arrows="1" fold="1" page="1" pageScale="1" pageWidth="827" pageHeight="1169" math="0" shadow="0">
      <root>
        <mxCell id="0" />
        <mxCell id="1" parent="0" />
        <mxCell id="_Ai08Qy22Dj0BchKp4Sf-1" value="学生" style="swimlane;childLayout=stackLayout;horizontal=1;startSize=30;horizontalStack=0;rounded=1;fontSize=14;fontStyle=0;strokeWidth=2;resizeParent=0;resizeLast=1;shadow=0;dashed=0;align=center;" vertex="1" parent="1">
          <mxGeometry x="20" y="210" width="160" height="120" as="geometry">
            <mxRectangle x="30" y="210" width="60" height="30" as="alternateBounds" />
          </mxGeometry>
        </mxCell>
        <mxCell id="_Ai08Qy22Dj0BchKp4Sf-2" value="姓名&#xa;邮箱&#xa;登记日期" style="align=left;strokeColor=none;fillColor=none;spacingLeft=4;fontSize=12;verticalAlign=top;resizable=0;rotatable=0;part=1;" vertex="1" parent="_Ai08Qy22Dj0BchKp4Sf-1">
          <mxGeometry y="30" width="160" height="90" as="geometry" />
        </mxCell>
        <mxCell id="_Ai08Qy22Dj0BchKp4Sf-3" value="课程" style="swimlane;childLayout=stackLayout;horizontal=1;startSize=30;horizontalStack=0;rounded=1;fontSize=14;fontStyle=0;strokeWidth=2;resizeParent=0;resizeLast=1;shadow=0;dashed=0;align=center;" vertex="1" parent="1">
          <mxGeometry x="254" y="220" width="160" height="120" as="geometry" />
        </mxCell>
        <mxCell id="_Ai08Qy22Dj0BchKp4Sf-4" value="名称&#xa;价格&#xa;讲师&#xa;标签&#xa;" style="align=left;strokeColor=none;fillColor=none;spacingLeft=4;fontSize=12;verticalAlign=top;resizable=0;rotatable=0;part=1;" vertex="1" parent="_Ai08Qy22Dj0BchKp4Sf-3">
          <mxGeometry y="30" width="160" height="90" as="geometry" />
        </mxCell>
      </root>
    </mxGraphModel>
  </diagram>
</mxfile>
